# xmcd
#
# Track frame offsets:
#	150
#	13196
#	26315
#	40854
#	53502
#	65013
#	76657
#	88510
#	102424
#	116440
#	129265
#	138970
#	151106
#	164793
#	175663
#	188051
#	199617
#	211054
#	221980
#	234681
#
# Disc length: 3304 seconds
# Revision: 0
# Processed by: cddbd v1.5.2PL0 Copyright (c) Steve Scherf et al.
# Submitted via: dBpowerAMP V12.0
#
DISCID=050ce614
DTITLE=Howlin' Wolf - The Best Of Howlin' Wolf 1951 - 1958
DYEAR=2009
DGENRE=Genre: Blues;Chicago Blues;Electric Chicago Blues
TTITLE0=Baby, How Long
TTITLE1=Evil
TTITLE2=I'll Be Around
TTITLE3=Forty Four
TTITLE4=Who Will Be Next
TTITLE5=I Have A Little Girl
TTITLE6=Don't Mess With My Baby
TTITLE7=Smokestack Lightnin'
TTITLE8=You Can't Be Beat
TTITLE9=I Asked For Water
TTITLE10=So Glad
TTITLE11=Goin' Back Home
TTITLE12=My Life
TTITLE13=Somebody In My Room
TTITLE14=Nature
TTITLE15=Poor Boy
TTITLE16=Sitting Op Top Of The World
TTITLE17=I Didn't Know That
TTITLE18=Moanin' For My Baby
TTITLE19=I'm Leaving You
EXTD=
EXTT0=
EXTT1=
EXTT2=
EXTT3=
EXTT4=
EXTT5=
EXTT6=
EXTT7=
EXTT8=
EXTT9=
EXTT10=
EXTT11=
EXTT12=
EXTT13=
EXTT14=
EXTT15=
EXTT16=
EXTT17=
EXTT18=
EXTT19=
PLAYORDER=
